# xmcd
#
# Track frame offsets: 
#        182
#        17345
#        31885
#        44050
#        59152
#        74485
#        88537
#        101815
#        118975
#        132270
#        146162
#        164867
#        171502
#        183560
#        194095
#
# Disc length: 2711 seconds
#
# Revision: 4
# Processed by: cddbd v1.5.2PL0 Copyright (c) Steve Scherf et al.
# Submitted via: ExactAudioCopy v1.0b4
#
DISCID=f50a950f
DTITLE=Cascatinha and Inhana - Os Grandes Sucessos
DYEAR=1994
DGENRE=Country
TTITLE0=Índia
TTITLE1=Meu Primeiro Amor
TTITLE2=Colcha de Retalhos
TTITLE3=Solidão
TTITLE4=Anahi
TTITLE5=A Lua é Testemunha (Una Noche Serena Y Oscura)
TTITLE6=Flor do Cafezal
TTITLE7=Chuá... Chuá
TTITLE8=Pombinha Branca (Vola Colomba)
TTITLE9=Vai Com Deus (Vaya Con Dios)
TTITLE10=Serra Da Boa Esperança
TTITLE11=Guacyra
TTITLE12=Quero Beijar-te as Mãos
TTITLE13=Felicidade
TTITLE14=Sertaneja
EXTD=Chantecler\nWarner Music Brasil
EXTT0=J. Flores - M. O. Guerreiro - Jose Fortuna
EXTT1=H. Gimenez - Jose Fortuna - Pinheirinho Junior
EXTT2=Raul Torres
EXTT3=Eladio Martins - J.A. Torres - M. Cardozo\nVersion: Jose Fortuna
EXTT4=Oswald Sosa Cordero\nVersion: Jose Fortuna
EXTT5=(Una Noche Serena Y Oscura]\nS. Lozano - Inhana - Goia'
EXTT6=Luiz Carlos Parana'
EXTT7=Pedro de Sa' Pereira - Marques Porto - Ary Pavao
EXTT8=Cherubini - Concina \nVersion: Jose'Fortuna - Pitangueira
EXTT9=L. Russel - I. James - B. Pepper\nVersion: Jose' Fortuna
EXTT10=Lamartine Babo
EXTT11=Hekel Tavares - Joracy Camargo
EXTT12=Arcenio de Carvalho - Lourival Faissal
EXTT13=Barrinha
EXTT14=Rene' Bittencourt
PLAYORDER=
